<svg xmlns="http://www.w3.org/2000/svg" width="960" height="640" viewBox="0 0 960 640" role="img" aria-label="GitHub injected panel preview">
  <rect width="960" height="640" fill="#ffffff"/>
  <rect x="96" y="54" width="768" height="72" rx="10" fill="#f6f8fa" stroke="#d0d7de"/>
  <text x="128" y="98" font-family="Inter,Arial,sans-serif" font-size="26" font-weight="700" fill="#0969da">C-Joey / git-start-sum</text>
  <rect x="650" y="76" width="88" height="32" rx="8" fill="#f6f8fa" stroke="#d0d7de"/>
  <text x="676" y="97" font-family="Inter,Arial,sans-serif" font-size="14" fill="#24292f">Star</text>
  <rect x="750" y="76" width="88" height="32" rx="8" fill="#f6f8fa" stroke="#d0d7de"/>
  <text x="778" y="97" font-family="Inter,Arial,sans-serif" font-size="14" fill="#24292f">Fork</text>
  <rect x="96" y="156" width="476" height="360" rx="10" fill="#ffffff" stroke="#d0d7de"/>
  <text x="128" y="200" font-family="Inter,Arial,sans-serif" font-size="24" font-weight="700" fill="#24292f">README.md</text>
  <rect x="128" y="226" width="380" height="12" rx="6" fill="#d0d7de"/>
  <rect x="128" y="254" width="326" height="12" rx="6" fill="#d0d7de"/>
  <rect x="128" y="282" width="404" height="12" rx="6" fill="#d0d7de"/>
  <rect x="128" y="336" width="180" height="24" rx="12" fill="#ddf4ff"/>
  <rect x="128" y="374" width="248" height="12" rx="6" fill="#d0d7de"/>
  <rect x="128" y="402" width="310" height="12" rx="6" fill="#d0d7de"/>
  <rect x="604" y="156" width="260" height="280" rx="12" fill="#f6f8fa" stroke="#d0d7de"/>
  <g font-family="Inter,Arial,sans-serif">
    <text x="628" y="194" font-size="18" font-weight="700" fill="#24292f">GitHub Stars Manager</text>
    <text x="628" y="224" font-size="13" fill="#57606a">标签</text>
    <rect x="628" y="238" width="58" height="26" rx="13" fill="#dafbe1" stroke="#4ac26b"/>
    <text x="646" y="256" font-size="12" fill="#1a7f37">工具</text>
    <rect x="696" y="238" width="48" height="26" rx="13" fill="#ddf4ff" stroke="#54aeef"/>
    <text x="714" y="256" font-size="12" fill="#0969da">AI</text>
    <text x="628" y="294" font-size="13" fill="#57606a">备注</text>
    <rect x="628" y="310" width="208" height="52" rx="8" fill="#ffffff" stroke="#d0d7de"/>
    <text x="644" y="340" font-size="13" fill="#24292f">适合管理大量 Star 仓库。</text>
    <rect x="628" y="380" width="208" height="34" rx="8" fill="#0969da"/>
    <text x="692" y="402" font-size="14" fill="#ffffff">保存</text>
  </g>
</svg>
